PathFileType	4	(X/Y/Z)	C:\Data\4407\4407cd01.trc
DataRate	CameraRate	NumFrames	NumMarkers	Units	OrigDataRate	OrigDataStartFrame	OrigNumFrames
200.00	200.00	       11	33	mm	200.00	57	       451
Frame#	Time	Offset			RShoulder			RUpperArm			RElbow			RForearm			RWrist			LShoulder			LUpperArm			LElbow			LForearm			LWrist			LPSIS			RPSIS			RASIS			RThigh			RKnee			RShank			RAnkle			RHeel			RLat5			RToe			LASIS			LThigh			LKnee			LShank			LAnkle			LHeel			LLat5			LToe			RMed.Knee			LMed.Knee			RMed.Ankle			LMed.Ankle			
		X1	Y1	Z1	X2	Y2	Z2	X3	Y3	Z3	X4	Y4	Z4	X5	Y5	Z5	X6	Y6	Z6	X7	Y7	Z7	X8	Y8	Z8	X9	Y9	Z9	X10	Y10	Z10	X11	Y11	Z11	X12	Y12	Z12	X13	Y13	Z13	X14	Y14	Z14	X15	Y15	Z15	X16	Y16	Z16	X17	Y17	Z17	X18	Y18	Z18	X19	Y19	Z19	X20	Y20	Z20	X21	Y21	Z21	X22	Y22	Z22	X23	Y23	Z23	X24	Y24	Z24	X25	Y25	Z25	X26	Y26	Z26	X27	Y27	Z27	X28	Y28	Z28	X29	Y29	Z29	X30	Y30	Z30	X31	Y31	Z31	X32	Y32	Z32	X33	Y33	Z33	

57	0.280	329.91180	-309.15509	1396.11987	418.17841	-208.61111	1539.77515	539.25104	-276.15158	1406.39294	704.79633	-269.22037	1407.72839	847.12512	-257.48126	1327.97046	966.32159	-198.70457	1380.76904	130.63937	-217.17682	1541.75391	-5.52752	-286.10416	1388.21094	-136.67821	-291.17014	1397.41821	-277.93301	-282.47421	1327.43018	-420.86179	-213.98003	1345.87073	252.89856	-314.43930	1031.26611	302.35556	-313.80481	1033.45972	397.38785	-99.77361	1019.50317	370.94583	-103.82336	692.07532	452.90433	-203.60924	520.27539	420.74493	-175.34915	444.06543	462.51611	-247.45586	110.84451	417.84589	-303.52972	75.83720	515.99384	-108.11114	62.20745	410.55533	-92.37920	57.46251	143.58624	-106.46646	998.24432	147.63620	-113.68471	663.97278	99.32387	-206.78163	519.19275	132.43848	-179.17448	444.27542	93.16073	-267.12955	111.04629	145.68372	-319.01068	80.78529	41.52672	-122.01277	57.89648	150.28354	-105.25406	49.29420	342.59155	-198.22603	501.29935	202.55031	-193.70876	480.86722	376.68442	-208.08066	121.38997	178.87798	-222.50047	116.53495	
58	0.285	329.83701	-309.12451	1396.06860	418.18732	-208.61911	1539.78442	539.25568	-276.12958	1406.41248	704.82739	-269.20248	1407.65845	847.22107	-257.29800	1327.88342	966.28333	-198.65164	1380.74500	130.61664	-217.16650	1541.76648	-5.47050	-285.98749	1388.15601	-136.63965	-291.07852	1397.34009	-277.88733	-282.29105	1327.40320	-420.79623	-213.90179	1345.87097	252.91814	-314.40625	1031.27185	302.33987	-313.81763	1033.47742	397.45355	-99.74249	1019.57062	370.95865	-103.80577	692.08966	452.84583	-203.54312	520.32385	420.70349	-175.21730	444.19513	462.50739	-247.43771	110.85373	417.83279	-303.52921	75.88799	515.99640	-108.18747	62.17197	410.50189	-92.38892	57.48839	143.57974	-106.44140	998.23871	147.53889	-113.81786	663.84662	99.34592	-206.77002	519.19696	132.43037	-179.17001	444.27179	93.14517	-267.16675	111.05084	145.73322	-319.00665	80.72079	41.50657	-122.03204	57.90031	150.26718	-105.26231	49.25294	342.61649	-198.37576	501.27985	202.55144	-193.77858	480.84503	376.69962	-208.07622	121.39069	178.87846	-222.47014	116.56985	
59	0.290	329.85855	-309.14301	1396.10095	418.25534	-208.54001	1539.78296	539.28418	-276.15994	1406.42603	704.88464	-269.14398	1407.54309	847.11621	-257.27136	1327.93677	966.32678	-198.53555	1380.74109	130.64232	-217.18275	1541.75037	-5.48942	-285.96677	1388.14294	-136.62479	-291.01968	1397.36877	-277.88629	-282.28351	1327.41174	-420.81729	-213.78215	1345.85083	252.91029	-314.32895	1031.22766	302.32867	-313.81503	1033.46814	397.49496	-99.76185	1019.61481	370.96912	-103.78437	692.09235	452.92474	-203.55867	520.32239	420.70508	-175.26361	444.14676	462.54272	-247.37215	110.84305	417.83411	-303.50385	75.84388	515.98547	-108.14450	62.17895	410.49454	-92.34437	57.48280	143.59329	-106.39413	998.22882	147.55359	-113.72329	663.90515	99.29292	-206.82130	519.21704	132.38728	-179.18346	444.24112	93.13220	-267.14859	111.06653	145.69690	-319.02484	80.73901	41.49487	-122.07950	57.87856	150.38452	-105.26420	49.14618	342.73792	-198.37411	501.22852	202.57704	-193.82961	480.85544	376.70035	-208.04742	121.38844	178.93230	-222.45117	116.62794	
60	0.295	329.81061	-309.14130	1396.12036	418.24771	-208.55589	1539.81006	539.31390	-276.13828	1406.43945	704.88556	-269.10574	1407.56641	847.12079	-257.20901	1327.92664	966.32336	-198.45795	1380.71667	130.64816	-217.15808	1541.75647	-5.44072	-285.92200	1388.12122	-136.65707	-290.91418	1397.28052	-277.86511	-282.23352	1327.43091	-420.79974	-213.66689	1345.82019	252.92366	-314.33688	1031.26062	302.36407	-313.78525	1033.48193	397.49249	-99.80971	1019.54120	370.94135	-103.86752	692.09094	452.92117	-203.59201	520.28064	420.68729	-175.38148	444.20117	462.54950	-247.35237	110.84237	417.85696	-303.51352	75.86493	515.96936	-108.18087	62.19657	410.51831	-92.38863	57.47225	143.60454	-106.38134	998.21979	147.53151	-113.85983	663.85028	99.32169	-206.78677	519.22284	132.46124	-179.18529	444.27274	93.14902	-267.14478	111.04691	145.67657	-319.02231	80.80756	41.51187	-122.00232	57.92925	150.39258	-105.32766	49.24529	342.60379	-198.34857	501.26025	202.57097	-193.74771	480.81000	376.67038	-208.04437	121.41418	178.92984	-222.46483	116.62322	
61	0.300	329.86823	-309.08444	1396.13098	418.31668	-208.51999	1539.74487	539.42706	-276.00394	1406.40686	704.92926	-269.02927	1407.46912	847.11682	-257.10095	1327.90344	966.31738	-198.38864	1380.70630	130.64606	-217.14322	1541.76025	-5.43306	-285.85529	1388.07190	-136.65982	-290.91031	1397.26843	-277.89331	-282.11774	1327.39038	-420.75671	-213.53291	1345.78857	252.92062	-314.31714	1031.26501	302.31821	-313.79178	1033.50317	397.50397	-99.86327	1019.48669	370.96432	-103.88357	692.08905	452.93906	-203.60748	520.31818	420.69238	-175.35013	444.18912	462.57449	-247.75046	110.74960	417.87149	-303.47876	75.86124	516.00208	-108.22282	62.19223	410.46777	-92.42222	57.47198	143.66057	-106.33198	998.20404	147.60617	-113.85149	663.85284	99.38889	-206.75580	519.18750	132.43860	-179.20638	444.23279	93.15367	-267.14932	111.04776	145.70268	-319.04337	80.73606	41.54860	-122.05936	57.91196	150.30634	-105.25887	49.25863	342.59650	-198.40817	501.26685	202.57889	-193.73746	480.84738	376.67563	-208.08934	121.38866	178.92496	-222.38986	116.56516	
62	0.305	329.80151	-309.12659	1396.12231	418.27563	-208.57114	1539.72461	539.48108	-275.97119	1406.43835	704.90961	-269.03024	1407.47717	847.11346	-257.06030	1327.90186	966.31085	-198.31267	1380.67664	130.65250	-217.17140	1541.75061	-5.44578	-285.77368	1388.02893	-136.63017	-290.79868	1397.18982	-277.86453	-282.09546	1327.36975	-420.72986	-213.42171	1345.78369	252.92018	-314.29889	1031.27112	302.30759	-313.75616	1033.48743	397.50644	-99.74132	1019.55634	370.96765	-103.86497	692.09717	453.01508	-203.62849	520.33032	420.74771	-175.32210	444.10370	462.51468	-247.41714	110.85287	417.87238	-303.50824	75.86309	516.00244	-108.19564	62.15726	410.51248	-92.35033	57.51718	143.66780	-106.26715	998.18359	147.66360	-113.84625	663.85779	99.35866	-206.74991	519.19800	132.49760	-179.18132	444.21420	93.14951	-267.20871	111.07127	145.72682	-319.03018	80.74795	41.51733	-122.04662	57.89752	150.32275	-105.31006	49.24974	342.71915	-198.41643	501.32281	202.56165	-193.75145	480.83722	376.68640	-208.04358	121.39648	178.92841	-222.48213	116.61351	
63	0.310	329.82715	-309.07462	1396.07385	418.29773	-208.55099	1539.71362	539.48944	-275.97833	1406.40955	704.95032	-268.99478	1407.46741	847.10480	-256.98203	1327.87354	966.28778	-198.22926	1380.68652	130.67599	-217.14415	1541.73682	-5.46801	-285.69550	1388.01599	-136.58958	-290.80624	1397.18958	-277.86572	-282.00162	1327.37012	-420.68219	-213.30898	1345.73999	252.93018	-314.33640	1031.29468	302.29916	-313.76825	1033.49609	397.53046	-99.76192	1019.54694	370.96262	-103.91173	692.08685	452.95959	-203.57722	520.32935	420.72760	-175.35388	444.13049	462.51404	-247.45685	110.84568	417.83322	-303.48541	75.84158	515.93579	-108.22464	62.21109	410.52243	-92.42657	57.47716	143.79271	-106.23237	998.12689	147.70282	-113.74657	663.82257	99.43965	-206.73761	519.19690	132.51163	-179.13751	444.24063	93.15300	-267.14902	111.03632	145.75768	-318.96075	80.73378	41.50295	-122.04089	57.89959	150.31888	-105.32812	49.31497	342.61920	-198.46872	501.25882	202.71275	-193.79219	480.80490	376.72049	-208.08156	121.39882	178.88541	-222.45241	116.55376	
64	0.315	329.81970	-309.05594	1396.08569	418.25909	-208.57124	1539.75256	539.51013	-275.99008	1406.42712	704.96381	-268.92477	1407.45459	847.10864	-256.93011	1327.86523	966.29346	-198.04875	1380.65540	130.66013	-217.16905	1541.70581	-5.46415	-285.68069	1387.97168	-136.58807	-290.69296	1397.15210	-277.85330	-281.83704	1327.31677	-420.66385	-213.16847	1345.73083	252.88205	-314.27173	1031.28088	302.30124	-313.73495	1033.48804	397.67783	-99.82778	1019.53717	370.97369	-103.87168	692.07385	452.95236	-203.56665	520.33661	420.72958	-175.34460	444.15585	462.50629	-247.42334	110.85722	417.89633	-303.50876	75.89990	515.98279	-108.13377	62.17362	410.47519	-92.41490	57.47599	143.86649	-106.21135	998.14917	147.70711	-114.01388	663.60260	99.39153	-206.74698	519.17682	132.56815	-179.18784	444.19376	93.14346	-267.18753	111.07055	145.72800	-318.98987	80.70320	41.50069	-122.05732	57.90887	150.27464	-105.29619	49.23864	342.59293	-198.50192	501.36945	202.69781	-193.85594	480.83139	376.67834	-208.06136	121.40167	178.88808	-222.46461	116.54814	
65	0.320	329.83475	-309.05136	1396.13159	418.30042	-208.46219	1539.74780	539.51953	-275.94669	1406.45984	704.97528	-268.86441	1407.37622	847.10065	-256.89023	1327.86755	966.30853	-197.90408	1380.66541	130.66855	-217.10359	1541.71533	-5.48629	-285.67230	1387.86682	-136.58434	-290.69333	1397.14600	-277.83380	-281.74353	1327.29346	-420.63174	-213.04736	1345.71387	252.90552	-314.27023	1031.25403	302.31326	-313.73065	1033.48718	397.65753	-99.78677	1019.51544	371.01978	-103.92815	692.05963	453.01733	-203.62737	520.31866	420.77945	-175.38985	444.14026	462.54395	-247.34569	110.84732	417.89200	-303.48859	75.82642	515.98486	-108.13383	62.19028	410.49307	-92.35064	57.48594	143.80960	-106.14245	998.12952	147.89784	-113.86246	663.67694	99.45014	-206.69945	519.20685	132.62459	-179.15919	444.15613	93.14928	-267.17026	111.07093	145.73006	-319.01282	80.71746	41.46742	-122.11381	57.85554	150.30405	-105.32077	49.24344	342.74591	-198.59784	501.19839	202.70274	-193.84111	480.80441	376.71155	-208.06624	121.38038	178.91226	-222.40044	116.57735	
66	0.325	329.82208	-309.06970	1396.09827	418.29828	-208.45888	1539.73767	539.53375	-275.92386	1406.46118	704.93817	-268.90445	1407.34924	847.21588	-256.77597	1327.79236	966.27277	-197.85388	1380.66016	130.69073	-217.07005	1541.71277	-5.48748	-285.56735	1387.80823	-136.58572	-290.57986	1397.12085	-277.86432	-281.71661	1327.28418	-420.57687	-212.86159	1345.81885	252.88734	-314.23834	1031.26208	302.29129	-313.73334	1033.50635	397.63998	-99.80339	1019.47894	371.05414	-103.94892	692.03552	452.94019	-203.61818	520.26978	420.79120	-175.38934	444.17099	462.58072	-247.69217	110.75668	417.91388	-303.53024	75.84898	515.98260	-108.17150	62.16975	410.48975	-92.38814	57.42569	143.89528	-106.13284	998.12482	147.95959	-113.72559	663.65051	99.45442	-206.69110	519.21582	132.67285	-179.13942	444.16574	93.20949	-267.02502	110.89324	145.74315	-318.99771	80.71819	41.54057	-122.06654	57.92188	150.36888	-105.28634	49.22389	342.72870	-198.48180	501.29898	202.77766	-193.83466	480.79858	376.69293	-208.05786	121.38932	178.94829	-222.48576	116.61599	
67	0.330	329.74573	-309.04407	1396.05994	418.30252	-208.48752	1539.73157	539.53491	-275.89590	1406.46423	705.01031	-268.78479	1407.29517	847.19983	-256.76285	1327.77075	966.25964	-197.81799	1380.59973	130.71469	-217.06245	1541.72253	-5.44774	-285.43100	1387.75159	-136.52142	-290.54224	1397.09753	-277.86304	-281.58664	1327.24866	-420.56702	-212.77930	1345.66272	252.89310	-314.19324	1031.24780	302.28885	-313.73410	1033.51489	397.70865	-99.84335	1019.50372	371.07816	-103.95132	691.99500	453.00894	-203.54089	520.30865	420.80997	-175.37115	444.17514	462.58896	-247.68077	110.75344	417.91028	-303.50186	75.78876	516.00970	-108.11494	62.21928	410.49854	-92.40578	57.47317	143.92648	-106.17563	998.02209	148.04457	-113.61612	663.70941	99.47070	-206.69221	519.19019	132.69313	-179.17677	444.19324	93.22122	-267.02353	110.90828	145.69916	-319.01166	80.78201	41.53574	-122.05246	57.93464	150.35146	-105.29836	49.30037	342.67569	-198.56906	501.26480	202.70284	-193.77264	480.79877	376.70886	-208.04591	121.36927	178.91763	-222.46655	116.55149	
